<svg width="1180" height="371" viewBox="0 0 1180 371" fill="none" xmlns="http://www.w3.org/2000/svg">
<path d="M86.6527 145.709L155.32 185.919C164.466 191.275 170.087 201.08 170.087 211.679V220.435C170.087 220.744 170.007 220.928 169.854 221.117C169.657 221.358 169.272 221.662 168.687 221.858C167.404 222.289 166.512 221.884 166.11 221.419C160.927 215.425 154.835 209.046 148.489 203.862C142.308 198.813 135.131 194.261 127.81 192.988C123.985 192.323 120.264 192.652 116.887 194.136C113.525 195.614 110.963 198.034 109.108 200.821C105.519 206.214 104.324 213.298 104.492 220.01C104.662 226.875 106.271 234.241 109.208 240.836C112.126 247.387 116.579 253.665 122.785 257.712C136.933 266.938 156.392 268.618 167.362 268.833C168.121 268.848 168.845 269.163 169.368 269.668C169.874 270.157 170.087 270.709 170.087 271.232V292.599C170.087 298.578 163.596 302.299 158.437 299.277L78.8309 252.661C76.4595 251.273 75.0023 248.731 75.0023 245.983V215.689V176.944V152.387C75.0023 146.408 81.4932 142.687 86.6527 145.709Z" fill="#FD0016" stroke="#FD0016" stroke-width="14.0047"/>
<path opacity="0.9" d="M263.744 271.147L267.165 269.134L270.729 270.883L285.554 278.16C290.941 280.804 297.235 276.883 297.235 270.881V255.662V148.761C297.235 143.06 291.04 139.517 286.126 142.407L201.745 192.043C200.169 192.97 199.202 194.662 199.202 196.491V296.225C199.202 301.926 205.396 305.469 210.31 302.578L263.744 271.147Z" stroke="#007CA4" stroke-width="14.7418"/>
<path d="M187.609 48.2719C188.068 48.0071 188.633 48.0087 189.09 48.2761L289.595 107.063C290.571 107.634 290.567 109.046 289.588 109.612L183.912 170.624C183.453 170.889 182.888 170.887 182.431 170.62L81.9257 111.833C80.9494 111.262 80.9533 109.849 81.9329 109.284L187.609 48.2719Z" fill="#FFC700" stroke="#FFC700" stroke-width="11.7934"/>
<path d="M1101.42 228.372C1098.08 228.372 1095.31 227.363 1093.12 225.343C1091.01 223.236 1089.96 220.646 1089.96 217.574C1089.96 214.501 1091.01 211.955 1093.12 209.936C1095.31 207.829 1098.08 206.775 1101.42 206.775C1104.66 206.775 1107.34 207.829 1109.45 209.936C1111.56 211.955 1112.61 214.501 1112.61 217.574C1112.61 220.646 1111.56 223.236 1109.45 225.343C1107.34 227.363 1104.66 228.372 1101.42 228.372Z" fill="#FD0016"/>
<path d="M1063.5 227.45C1062.83 227.45 1062.21 227.114 1061.84 226.555L1049.19 207.47C1048.37 206.237 1046.54 206.287 1045.8 207.562L1034.7 226.463C1034.34 227.075 1033.68 227.45 1032.97 227.45H1018.05C1016.47 227.45 1015.51 225.689 1016.38 224.359L1037.48 191.942C1037.92 191.273 1037.91 190.41 1037.47 189.745L1016.16 157.599C1015.28 156.27 1016.23 154.494 1017.83 154.494H1033.83C1034.5 154.494 1035.13 154.831 1035.5 155.392L1048.03 174.357C1048.85 175.587 1050.66 175.545 1051.42 174.279L1062.64 155.47C1063 154.865 1063.65 154.494 1064.36 154.494H1079.26C1080.85 154.494 1081.81 156.266 1080.93 157.595L1059.73 189.738C1059.29 190.407 1059.29 191.274 1059.74 191.942L1081.18 224.346C1082.06 225.676 1081.11 227.45 1079.52 227.45H1063.5Z" fill="#FD0016"/>
<path d="M970.551 228.636C963.528 228.636 957.207 227.099 951.588 224.026C945.969 220.866 941.536 216.432 938.287 210.726C935.127 205.019 933.546 198.435 933.546 190.972C933.546 183.51 935.171 176.925 938.419 171.219C941.755 165.512 946.276 161.123 951.983 158.05C957.69 154.889 964.054 153.309 971.078 153.309C978.101 153.309 984.466 154.889 990.173 158.05C995.88 161.123 1000.36 165.512 1003.61 171.219C1006.94 176.925 1008.61 183.51 1008.61 190.972C1008.61 198.435 1006.9 205.019 1003.47 210.726C1000.14 216.432 995.572 220.866 989.778 224.026C984.071 227.099 977.662 228.636 970.551 228.636ZM970.551 212.569C973.887 212.569 977.004 211.779 979.901 210.199C982.886 208.531 985.257 206.073 987.012 202.824C988.768 199.576 989.646 195.625 989.646 190.972C989.646 184.037 987.803 178.725 984.115 175.038C980.516 171.263 976.082 169.375 970.815 169.375C965.547 169.375 961.113 171.263 957.514 175.038C954.002 178.725 952.246 184.037 952.246 190.972C952.246 197.908 953.958 203.263 957.382 207.038C960.894 210.726 965.284 212.569 970.551 212.569Z" fill="#FD0016"/>
<path d="M867.342 158.623C867.342 160.596 870.181 161.58 871.67 160.287C873.267 158.902 875.072 157.673 877.087 156.601C881.301 154.406 886.085 153.309 891.441 153.309C897.674 153.309 903.293 154.845 908.297 157.918C913.389 160.991 917.384 165.381 920.281 171.087C923.266 176.706 924.758 183.246 924.758 190.709C924.758 198.171 923.266 204.8 920.281 210.594C917.384 216.301 913.389 220.734 908.297 223.895C903.293 227.055 897.674 228.636 891.441 228.636C885.998 228.636 881.213 227.582 877.087 225.475C875.024 224.354 873.168 223.073 871.517 221.631C870.054 220.353 867.342 221.319 867.342 223.262V225.45C867.342 226.555 866.446 227.45 865.342 227.45H850.905C849.8 227.45 848.905 226.555 848.905 225.45V132C848.905 130.895 849.8 130 850.905 130H865.342C866.446 130 867.342 130.895 867.342 132V158.623ZM905.927 190.709C905.927 186.319 905.005 182.544 903.161 179.384C901.405 176.135 899.035 173.677 896.05 172.009C893.153 170.341 889.992 169.507 886.568 169.507C883.232 169.507 880.072 170.385 877.087 172.141C874.189 173.809 871.819 176.267 869.975 179.515C868.22 182.764 867.342 186.583 867.342 190.972C867.342 195.362 868.22 199.181 869.975 202.429C871.819 205.678 874.189 208.18 877.087 209.936C880.072 211.604 883.232 212.438 886.568 212.438C889.992 212.438 893.153 211.56 896.05 209.804C899.035 208.048 901.405 205.546 903.161 202.298C905.005 199.049 905.927 195.186 905.927 190.709Z" fill="#FD0016"/>
<path d="M814.1 158.736C814.1 160.754 817.064 161.706 818.528 160.317C819.974 158.943 821.571 157.749 823.318 156.733C826.65 154.84 830.373 153.763 834.488 153.503C835.59 153.433 836.487 154.336 836.487 155.441V170.799C836.487 171.904 835.592 172.799 834.487 172.799H831.615C825.82 172.799 821.431 174.16 818.446 176.881C815.548 179.603 814.1 184.344 814.1 191.104V225.45C814.1 226.555 813.204 227.45 812.1 227.45H797.663C796.559 227.45 795.663 226.555 795.663 225.45V156.494C795.663 155.39 796.559 154.494 797.663 154.494H812.1C813.204 154.494 814.1 155.39 814.1 156.494V158.736Z" fill="#FD0016"/>
<path d="M782.206 189.392C782.206 191.349 782.109 193.16 781.916 194.826C781.803 195.797 780.963 196.503 779.985 196.503H730.519C729.349 196.503 728.419 197.506 728.614 198.66C729.331 202.91 731.085 206.317 733.876 208.882C737.125 211.867 741.119 213.36 745.86 213.36C752.267 213.36 756.945 210.785 759.894 205.635C760.272 204.974 760.96 204.536 761.722 204.536H777.675C779.014 204.536 779.975 205.829 779.494 207.08C777.23 212.971 773.481 217.917 768.247 221.919C762.277 226.397 754.946 228.636 746.255 228.636C739.232 228.636 732.91 227.099 727.292 224.026C721.761 220.866 717.415 216.432 714.254 210.726C711.182 205.019 709.645 198.435 709.645 190.972C709.645 183.422 711.182 176.794 714.254 171.087C717.327 165.381 721.629 160.991 727.16 157.918C732.691 154.845 739.056 153.309 746.255 153.309C753.191 153.309 759.38 154.802 764.823 157.786C770.354 160.771 774.612 165.029 777.597 170.56C780.67 176.004 782.206 182.281 782.206 189.392ZM761.074 184.124C762.193 184.124 763.108 183.203 762.967 182.093C762.484 178.293 760.82 175.195 757.975 172.799C754.639 169.902 750.557 168.453 745.728 168.453C741.163 168.453 737.3 169.858 734.14 172.667C731.556 174.956 729.811 178.019 728.903 181.859C728.623 183.043 729.566 184.124 730.783 184.124H761.074Z" fill="#FD0016"/>
<path d="M686.796 169.639C685.692 169.639 684.796 170.534 684.796 171.639V204.931C684.796 207.39 685.367 209.189 686.508 210.331C687.737 211.384 689.756 211.911 692.566 211.911H699.126C700.23 211.911 701.126 212.806 701.126 213.911V225.45C701.126 226.555 700.23 227.45 699.126 227.45H689.537C673.998 227.45 666.228 219.9 666.228 204.8V171.639C666.228 170.534 665.332 169.639 664.228 169.639H659.536C658.432 169.639 657.536 168.743 657.536 167.639V156.494C657.536 155.39 658.432 154.494 659.536 154.494H664.228C665.332 154.494 666.228 153.599 666.228 152.494V138.453C666.228 137.348 667.123 136.453 668.228 136.453H682.796C683.901 136.453 684.796 137.348 684.796 138.453V152.494C684.796 153.599 685.692 154.494 686.796 154.494H699.126C700.23 154.494 701.126 155.39 701.126 156.494V167.639C701.126 168.743 700.23 169.639 699.126 169.639H686.796Z" fill="#FD0016"/>
<path d="M635.741 169.639C634.636 169.639 633.741 170.534 633.741 171.639V204.931C633.741 207.39 634.311 209.189 635.453 210.331C636.682 211.384 638.701 211.911 641.51 211.911H648.07C649.175 211.911 650.07 212.806 650.07 213.911V225.45C650.07 226.555 649.175 227.45 648.07 227.45H638.482C622.942 227.45 615.172 219.9 615.172 204.8V171.639C615.172 170.534 614.277 169.639 613.172 169.639H608.481C607.376 169.639 606.481 168.743 606.481 167.639V156.494C606.481 155.39 607.376 154.494 608.481 154.494H613.172C614.277 154.494 615.172 153.599 615.172 152.494V138.453C615.172 137.348 616.068 136.453 617.172 136.453H631.741C632.845 136.453 633.741 137.348 633.741 138.453V152.494C633.741 153.599 634.636 154.494 635.741 154.494H648.07C649.175 154.494 650.07 155.39 650.07 156.494V167.639C650.07 168.743 649.175 169.639 648.07 169.639H635.741Z" fill="#FD0016"/>
<path d="M518.284 190.709C518.284 183.334 519.733 176.794 522.63 171.087C525.615 165.381 529.609 160.991 534.613 157.918C539.705 154.845 545.368 153.309 551.601 153.309C557.045 153.309 561.785 154.406 565.824 156.601C567.957 157.736 569.867 159.023 571.554 160.462C573.022 161.715 575.701 160.743 575.701 158.812V156.494C575.701 155.39 576.596 154.494 577.701 154.494H592.269C593.373 154.494 594.269 155.39 594.269 156.494V225.45C594.269 226.555 593.373 227.45 592.269 227.45H577.701C576.596 227.45 575.701 226.555 575.701 225.45V223.186C575.701 221.225 572.903 220.239 571.419 221.521C569.781 222.936 567.916 224.21 565.824 225.343C561.698 227.538 556.913 228.636 551.47 228.636C545.324 228.636 539.705 227.055 534.613 223.895C529.609 220.734 525.615 216.301 522.63 210.594C519.733 204.8 518.284 198.171 518.284 190.709ZM575.701 190.972C575.701 186.495 574.823 182.676 573.067 179.515C571.311 176.267 568.941 173.809 565.956 172.141C562.971 170.385 559.766 169.507 556.342 169.507C552.918 169.507 549.758 170.341 546.861 172.009C543.963 173.677 541.593 176.135 539.749 179.384C537.993 182.544 537.116 186.319 537.116 190.709C537.116 195.099 537.993 198.961 539.749 202.298C541.593 205.546 543.963 208.048 546.861 209.804C549.846 211.56 553.006 212.438 556.342 212.438C559.766 212.438 562.971 211.604 565.956 209.936C568.941 208.18 571.311 205.722 573.067 202.561C574.823 199.313 575.701 195.45 575.701 190.972Z" fill="#FD0016"/>
<path d="M477.048 153.441C482.579 153.441 487.495 154.67 491.797 157.128C496.099 159.498 499.435 163.054 501.805 167.795C504.263 172.448 505.493 178.067 505.493 184.651V225.45C505.493 226.555 504.597 227.45 503.493 227.45H489.056C487.951 227.45 487.056 226.555 487.056 225.45V187.153C487.056 181.359 485.607 176.925 482.71 173.853C479.813 170.692 475.862 169.112 470.858 169.112C465.766 169.112 461.728 170.692 458.743 173.853C455.846 176.925 454.397 181.359 454.397 187.153V225.45C454.397 226.555 453.502 227.45 452.397 227.45H437.96C436.856 227.45 435.96 226.555 435.96 225.45V132C435.96 130.895 436.856 130 437.96 130H452.397C453.502 130 454.397 130.895 454.397 132V157.581C454.397 159.503 457.079 160.5 458.6 159.324C460.166 158.113 461.926 157.074 463.879 156.206C467.829 154.363 472.219 153.441 477.048 153.441Z" fill="#FD0016"/>
<path d="M352 190.972C352 183.422 353.536 176.838 356.609 171.219C359.682 165.512 363.94 161.123 369.383 158.05C374.826 154.889 381.06 153.309 388.083 153.309C397.126 153.309 404.588 155.592 410.47 160.157C414.212 162.963 417.178 166.494 419.368 170.749C421.448 174.792 418.059 179.12 413.512 179.12H407.614C404.601 179.12 402.082 177.057 400.249 174.666C399.385 173.539 398.359 172.566 397.17 171.746C394.711 169.902 391.639 168.98 387.951 168.98C382.684 168.98 378.514 170.912 375.441 174.774C372.368 178.55 370.832 183.949 370.832 190.972C370.832 197.908 372.368 203.307 375.441 207.17C378.514 210.945 382.684 212.833 387.951 212.833C393.513 212.833 397.635 210.98 400.32 207.274C402.076 204.851 404.58 202.824 407.572 202.824H413.44C418.009 202.824 421.392 207.192 419.245 211.225C417.068 215.317 414.143 218.794 410.47 221.656C404.5 226.309 397.038 228.636 388.083 228.636C381.06 228.636 374.826 227.099 369.383 224.026C363.94 220.866 359.682 216.476 356.609 210.857C353.536 205.151 352 198.522 352 190.972Z" fill="#FD0016"/>
</svg>
