<svg width="497" height="497" viewBox="0 0 497 497" fill="none" xmlns="http://www.w3.org/2000/svg">
<rect width="497" height="497" rx="248.5" fill="white"/>
<path d="M118.384 204.811L208.044 257.315C219.987 264.308 227.326 277.111 227.326 290.951V302.384C227.326 302.787 227.222 303.027 227.022 303.273C226.765 303.588 226.262 303.985 225.498 304.242C223.824 304.804 222.659 304.275 222.134 303.668C215.366 295.842 207.412 287.512 199.126 280.744C191.055 274.151 181.683 268.208 172.124 266.545C167.129 265.677 162.27 266.106 157.861 268.044C153.472 269.973 150.127 273.133 147.705 276.773C143.018 283.815 141.458 293.064 141.676 301.829C141.9 310.792 144 320.41 147.835 329.021C151.644 337.575 157.459 345.773 165.563 351.057C184.037 363.104 209.444 365.298 223.768 365.578C224.759 365.597 225.705 366.009 226.388 366.669C227.049 367.307 227.326 368.027 227.326 368.711V396.61C227.326 404.417 218.851 409.275 212.114 405.33L108.17 344.462C105.074 342.649 103.171 339.33 103.171 335.742V296.186V245.596V213.531C103.171 205.724 111.647 200.866 118.384 204.811Z" fill="#FD0016" stroke="#FD0016" stroke-width="18.2864"/>
<path opacity="0.9" d="M349.617 368.599L354.085 365.971L358.738 368.255L378.096 377.757C385.13 381.209 393.347 376.089 393.347 368.253V348.38V208.796C393.347 201.352 385.259 196.726 378.843 200.5L268.664 265.312C266.606 266.522 265.343 268.731 265.343 271.118V401.345C265.343 408.789 273.431 413.415 279.847 409.641L349.617 368.599Z" stroke="#007CA4" stroke-width="19.2488"/>
<path d="M250.205 77.5843C250.804 77.2385 251.543 77.2406 252.139 77.5898L256.027 70.9437L252.14 77.5898L383.372 154.349C384.647 155.095 384.642 156.939 383.363 157.678L245.378 237.343C244.779 237.689 244.041 237.687 243.444 237.338L112.211 160.578C110.937 159.833 110.942 157.988 112.221 157.25L250.205 77.5843Z" fill="#FFC700" stroke="#FFC700" stroke-width="15.3991"/>
</svg>
